<?xml version="1.0" encoding="UTF-8"?>
<svg version="1.1" xmlns="http://www.w3.org/2000/svg" width="512" height="512">
<path d="M0 0 C17.46377262 6.28276935 34.94166311 12.09520257 53.05566406 16.23895264 C54.16651367 16.4978125 54.16651367 16.4978125 55.29980469 16.76190186 C57.19293062 17.19445191 59.09277473 17.59733336 60.99316406 17.99676514 C65.54397547 19.58206606 68.79140972 21.95553802 71.47753906 26.07098389 C73.30947096 31.21990489 73.49434269 34.76481013 72.20019531 40.11395264 C69.89442186 44.47845239 67.75764339 47.14596369 63.20019531 49.11395264 C57.59635948 50.11124545 53.01816315 50.07728482 47.45019531 48.80145264 C46.6815918 48.63484131 45.91298828 48.46822998 45.12109375 48.29656982 C39.09459165 46.92701281 33.14837245 45.28878764 27.20019531 43.61785889 C26.40329285 43.39422165 25.60639038 43.17058441 24.78533936 42.94017029 C20.73643935 41.80021014 16.69263328 40.64503782 12.65429688 39.46820068 C11.13315895 39.03233662 9.61200091 38.59654274 8.09082031 38.16082764 C7.39972168 37.9547438 6.70862305 37.74865997 5.99658203 37.53633118 C1.62629788 36.29450928 -2.26388784 35.82647492 -6.79980469 36.11395264 C-8.86383153 37.09444202 -8.86383153 37.09444202 -9.79980469 39.11395264 C-10.08580658 42.54597535 -9.8917051 44.83825139 -8.79980469 48.11395264 C-6.68228486 48.96476332 -6.68228486 48.96476332 -3.97949219 49.46160889 C1.58386654 50.72466389 7.07229843 52.14588505 12.56738281 53.67254639 C59.78592884 68.04686369 59.78592884 68.04686369 106.05273438 56.33807373 C113.75309314 51.94862411 121.40617982 47.48241266 129.0390625 42.97674561 C134.08245416 40.00477477 139.14175639 37.06021321 144.20019531 34.11395264 C150.29656267 30.55981941 156.39132697 27.00300367 162.48144531 23.43817139 C167.493787 20.50471896 172.51257986 17.58257643 177.53515625 14.66668701 C179.95297253 13.2579923 182.36247159 11.83614503 184.77050781 10.41082764 C197.53683011 2.93394575 211.01954144 -3.37434676 226.20019531 -1.88604736 C230.98295109 -0.56721438 233.58515614 1.32544088 236.63769531 5.23895264 C239.39505236 10.98754969 240.08166672 17.34971067 238.07519531 23.42645264 C235.33454884 30.52441906 228.42923056 34.01345194 222.20019531 37.61395264 C220.3895039 38.68031121 218.57963284 39.74806377 216.77050781 40.81707764 C215.84399414 41.36299561 214.91748047 41.90891357 213.96289062 42.47137451 C209.63210574 45.0462703 205.35283363 47.70199126 201.07519531 50.36395264 C199.31617842 51.45655784 197.55706135 52.54900179 195.79785156 53.64129639 C194.89309082 54.2031665 193.98833008 54.76503662 193.05615234 55.34393311 C187.88254287 58.55035033 182.69734102 61.73792257 177.51269531 64.92645264 C176.42134277 65.59773193 175.32999023 66.26901123 174.20556641 66.96063232 C171.98068101 68.32903962 169.75574588 69.69736608 167.53076172 71.06561279 C162.08651963 74.41388952 156.64340641 77.76400023 151.20019531 81.11395264 C149.03353424 82.44729505 146.86686757 83.78062838 144.70019531 85.11395264 C143.62769531 85.77395264 142.55519531 86.43395264 141.45019531 87.11395264 C138.20019531 89.11395264 134.95019531 91.11395264 131.70019531 93.11395264 C130.62656738 93.77467773 129.55293945 94.43540283 128.44677734 95.1161499 C126.29161578 96.44234084 124.13634329 97.76835153 121.98095703 99.09417725 C116.97435471 102.17414321 111.96876025 105.25570252 106.96734619 108.34408569 C105.21711936 109.42473312 103.46652424 110.50478145 101.71582031 111.58465576 C99.53540519 112.92983122 97.35566155 114.27609604 95.17675781 115.62371826 C76.14246245 127.36071611 61.23827455 134.93221321 38.49577904 129.86950779 C34.71646511 128.93289728 30.97008408 127.89595438 27.22363281 126.83660889 C25.55920686 126.38526581 23.89420144 125.93605505 22.22866821 125.48881531 C17.87904471 124.31480951 13.53772876 123.11264314 9.19769287 121.90374756 C4.88809581 120.70857083 0.5712302 119.54032555 -3.74511719 118.36981201 C-16.19875808 114.9848965 -28.64262074 111.56477648 -41.06781197 108.07678699 C-44.12033839 107.22121521 -47.17467558 106.37223237 -50.22932053 105.52425957 C-52.32342407 104.93993521 -54.41455265 104.34573718 -56.50576782 103.75117493 C-57.76343964 103.40223679 -59.02111145 103.05329865 -60.31689453 102.69378662 C-61.95022232 102.23382545 -61.95022232 102.23382545 -63.61654663 101.76457214 C-68.74044739 100.7173087 -73.33709906 100.28489966 -77.87792969 103.11785889 C-78.90660156 103.7337085 -78.90660156 103.7337085 -79.95605469 104.36199951 C-80.64699219 104.79576904 -81.33792969 105.22953857 -82.04980469 105.67645264 C-83.44527393 106.54098148 -84.84612049 107.39690828 -86.25292969 108.24285889 C-86.86297852 108.62514648 -87.47302734 109.00743408 -88.1015625 109.40130615 C-89.79980469 110.11395264 -89.79980469 110.11395264 -92.79980469 109.11395264 C-94.3269043 106.85516357 -94.3269043 106.85516357 -95.95214844 103.84832764 C-96.8602124 102.187854 -96.8602124 102.187854 -97.78662109 100.49383545 C-98.26340302 99.60661804 -98.26340302 99.60661804 -98.74981689 98.70147705 C-100.08414747 96.21854508 -101.43852474 93.74675199 -102.79168701 91.27404785 C-103.47868704 90.01800926 -104.16459463 88.76137257 -104.84942627 87.50415039 C-107.80403303 82.08319741 -110.84505553 76.71480172 -113.92480469 71.36395264 C-120.2705962 60.31114776 -126.53838034 49.21472029 -132.79980469 38.11395264 C-129.51883187 35.38860166 -126.24123536 33.08175552 -122.53808594 30.96942139 C-121.51457031 30.38249512 -120.49105469 29.79556885 -119.43652344 29.19085693 C-118.33953125 28.56735352 -117.24253906 27.9438501 -116.11230469 27.30145264 C-114.36395501 26.30090145 -112.61560951 25.30034289 -110.86752319 24.29933167 C-109.05345774 23.26111531 -107.23839947 22.22464848 -105.42333984 21.18817139 C-100.80286262 18.54674932 -96.19901745 15.8768774 -91.59423828 13.20819092 C-87.31108461 10.72920543 -83.02003488 8.26409247 -78.72802734 5.80047607 C-76.02040194 4.24100665 -73.32170216 2.66710114 -70.62402344 1.09051514 C-45.13267616 -13.66432227 -26.40991671 -9.52280651 0 0 Z " fill="#000000" transform="translate(210.7998046875,330.88604736328125)"/>
<path d="M0 0 C4.26114982 2.7795261 8.34875809 5.79108187 12.36816406 8.90942383 C22.52530354 16.68742575 32.88957821 17.11293267 45.22265625 17.81835938 C53.20315485 18.40854023 59.28426645 20.11416738 65.05859375 25.83203125 C69.57660002 31.60775277 71.14454764 38.81473185 72.73046875 45.84765625 C75.92725272 59.96154027 82.02365571 68.80342173 93.49609375 77.70703125 C98.60395045 82.07682609 101.33464962 87.4063298 102.25390625 94.05078125 C102.51128636 101.39469359 101.22332539 106.44668046 97.80859375 112.83203125 C96.55349544 115.42414404 95.33906343 118.03481946 94.12109375 120.64453125 C93.6569104 121.61495361 93.6569104 121.61495361 93.18334961 122.60498047 C89.59313386 130.18487414 89.1857627 136.57120278 90.30859375 144.83203125 C92.83586108 166.21950256 92.83586108 166.21950256 88.16381836 173.11743164 C83.51670543 178.9968541 77.76097922 182.07718445 70.93359375 184.83203125 C57.15736385 190.74070428 50.3822003 197.11277248 41.8984375 209.65625 C36.76024925 217.21108063 32.57447243 222.02738252 23.421875 224.38671875 C15.31837801 225.76758371 7.78181209 223.12580643 0.13647461 220.6484375 C-11.88602926 216.83597702 -20.14902604 218.80451017 -32.15429688 222.3828125 C-40.82936494 224.83350702 -47.98254796 225.7717984 -56.44140625 222.20703125 C-63.89969241 217.97274528 -68.00871832 210.29581616 -72.50146484 203.25073242 C-76.92939079 196.40059509 -81.52963443 192.28300122 -88.87890625 188.83203125 C-89.93911987 188.31612427 -89.93911987 188.31612427 -91.02075195 187.78979492 C-94.09692724 186.29470984 -97.18788436 184.83368103 -100.28515625 183.3828125 C-107.5807289 179.8998358 -111.99961941 175.86824487 -116.19140625 168.83203125 C-118.27807938 162.4907129 -117.54924602 154.98886834 -116.69140625 148.45703125 C-116.6140625 147.72871094 -116.53671875 147.00039062 -116.45703125 146.25 C-116.26443451 144.49680324 -116.01768754 142.74928443 -115.73828125 141.0078125 C-114.61816236 128.78967356 -120.69212962 118.78099915 -126.06811523 108.15356445 C-127.80284278 104.56836032 -128.3970801 101.65397654 -128.50390625 97.70703125 C-128.54128906 96.81757813 -128.57867187 95.928125 -128.6171875 95.01171875 C-127.11603273 83.80126016 -119.43997308 77.73322707 -111.45703125 70.46875 C-105.39410022 64.71972812 -102.26789133 59.92215712 -100.19140625 51.83203125 C-99.96195313 50.98962891 -99.7325 50.14722656 -99.49609375 49.27929688 C-98.64920109 46.05753354 -97.87724713 42.82121035 -97.125 39.57617188 C-95.07473196 31.2732652 -91.07812332 25.83347057 -84.19140625 20.83203125 C-79.05518739 18.201285 -73.54330213 17.82364107 -67.85546875 17.4375 C-66.87320313 17.36853516 -65.8909375 17.29957031 -64.87890625 17.22851562 C-62.84578136 17.0897756 -60.81187156 16.96207393 -58.77734375 16.84570312 C-47.45404462 16.00831255 -40.83570642 11.09665082 -32.19140625 4.16601562 C-22.35030093 -3.49351654 -11.42230659 -6.34166462 0 0 Z M-68.19140625 62.83203125 C-74.18657724 70.02932446 -78.94738552 78.04137115 -82.19140625 86.83203125 C-82.50980469 87.67121094 -82.82820313 88.51039063 -83.15625 89.375 C-88.79084214 107.36934265 -86.03661836 128.08808677 -77.50390625 144.58203125 C-67.52510032 162.71744672 -51.81590849 175.16082967 -32.12890625 181.33203125 C-11.5959592 186.15824336 8.7977667 182.67703043 26.80859375 171.83203125 C43.5759109 160.04318487 55.19089308 143.19623202 59.05859375 122.95703125 C61.77501962 103.94205019 58.14662789 85.07281316 47.12109375 69.14453125 C34.18195047 52.48048309 17.76916454 41.33051128 -3.359375 38.11328125 C-28.12984178 35.65331765 -51.38206029 44.49193729 -68.19140625 62.83203125 Z " fill="#000000" transform="translate(335.19140625,43.16796875)"/>
<path d="M0 0 C1.87872047 2.18755123 3.11974663 4.01590174 4.5 6.5 C4.91741455 7.20922607 5.3348291 7.91845215 5.76489258 8.64916992 C6.69225522 10.23104272 7.609437 11.81891408 8.51806641 13.41162109 C10.06273099 16.10956737 11.64260947 18.78429916 13.23046875 21.45703125 C25.05074404 41.42542759 36.20515117 61.76862773 47.21142578 82.1940918 C51.54420273 90.21287272 56.00122546 98.15740342 60.51220703 106.07714844 C61.51021352 107.8300119 62.50223866 109.58629653 63.48779297 111.34619141 C64.55340017 113.21625119 65.65498572 115.06603458 66.78173828 116.89990234 C67.35005371 117.85461426 67.91836914 118.80932617 68.50390625 119.79296875 C69.29196655 121.07530396 69.29196655 121.07530396 70.09594727 122.38354492 C71 125 71 125 70.46679688 128.12695312 C68.72327383 131.54202955 67.40677739 132.43927412 64.02734375 134.17578125 C63.04572266 134.69333984 62.06410156 135.21089844 61.05273438 135.74414062 C60.02470703 136.26169922 58.99667969 136.77925781 57.9375 137.3125 C55.90451484 138.3702618 53.87193981 139.42881237 51.83984375 140.48828125 C50.93613037 140.94759033 50.03241699 141.40689941 49.10131836 141.88012695 C47.07260906 142.83023898 47.07260906 142.83023898 46 144 C42.8125 144.6875 42.8125 144.6875 39 144 C37.57885742 142.20458984 37.57885742 142.20458984 36.23046875 139.7734375 C35.456427 138.40626587 35.456427 138.40626587 34.66674805 137.01147461 C34.11672119 136.01768799 33.56669434 135.02390137 33 134 C31.80399752 131.92467693 30.6059977 129.85050395 29.40625 127.77734375 C28.10271942 125.49820538 26.8005131 123.21835698 25.5 120.9375 C25.15440033 120.33217438 24.80880066 119.72684875 24.45272827 119.10317993 C18.36241262 108.43437358 12.34701796 97.72458396 6.35546875 87 C-2.50898504 71.13648627 -11.49856365 55.34423118 -20.53271484 39.5769043 C-22.35909735 36.3868382 -24.18091941 33.19423444 -26 30 C-26.51062988 29.10724365 -27.02125977 28.2144873 -27.54736328 27.29467773 C-27.99837402 26.49747314 -28.44938477 25.70026855 -28.9140625 24.87890625 C-29.30029785 24.19900635 -29.6865332 23.51910645 -30.08447266 22.81860352 C-31.60359361 19.80102165 -32.01483692 18.2619758 -31 15 C-28.32468067 12.46774588 -25.19198283 10.80701467 -22 9 C-20.68257171 8.20873042 -19.36623944 7.41563426 -18.05078125 6.62109375 C-16.63924416 5.78698882 -15.22647607 4.95496366 -13.8125 4.125 C-13.13574219 3.71918701 -12.45898438 3.31337402 -11.76171875 2.89526367 C-7.80564784 0.63652172 -4.64534077 -1.10448662 0 0 Z M-11.6875 18.625 C-14.48271977 21.49576625 -14.91729413 23.03011806 -15 27 C-14.19470612 29.63550724 -13.44657038 30.66507222 -11.25 32.3125 C-8.07357864 33.28307319 -6.16398262 32.98874457 -3 32 C-0.4285061 29.9315113 -0.4285061 29.9315113 1 27 C1.24677006 23.89706707 1.24677006 23.89706707 0 21 C-2.20488259 18.53583866 -2.20488259 18.53583866 -5 17 C-8.95294303 16.65505377 -8.95294303 16.65505377 -11.6875 18.625 Z " fill="#000000" transform="translate(52,352)"/>
<path d="M0 0 C2.4375 0.1796875 2.4375 0.1796875 5 1 C6.1875 2.7578125 6.1875 2.7578125 7 5.125 C7.31582031 6.01316406 7.63164062 6.90132813 7.95703125 7.81640625 C8.30121094 8.86699219 8.64539063 9.91757813 9 11 C9.44082621 12.32180817 9.88226519 13.64341209 10.32421875 14.96484375 C11.00470931 17.00195332 11.68022144 19.03987199 12.33789062 21.08447266 C13.2018836 24.29962322 13.2018836 24.29962322 15 27 C17.0708472 27.1584265 19.14678029 27.25124422 21.22265625 27.31640625 C22.48271484 27.35830078 23.74277344 27.40019531 25.04101562 27.44335938 C26.38150736 27.48317596 27.7220022 27.52288814 29.0625 27.5625 C30.40691523 27.60568042 31.7513166 27.64929456 33.09570312 27.69335938 C36.3970234 27.79985358 39.69842236 27.9018646 43 28 C43.495 30.475 43.495 30.475 44 33 C36.79587701 38.84936535 29.45009775 44.47003054 22 50 C22.21205078 50.66531738 22.42410156 51.33063477 22.64257812 52.01611328 C23.6039368 55.04967529 24.55206554 58.08721774 25.5 61.125 C25.83386719 62.17171875 26.16773438 63.2184375 26.51171875 64.296875 C26.82753906 65.31523437 27.14335937 66.33359375 27.46875 67.3828125 C27.76201172 68.31496582 28.05527344 69.24711914 28.35742188 70.20751953 C29.05104349 73.22182196 29.11137459 75.91731053 29 79 C26.00880102 79.92102726 24.59153371 80.3040852 21.75170898 78.84423828 C21.00735596 78.25884277 20.26300293 77.67344727 19.49609375 77.0703125 C18.67302734 76.43996094 17.84996094 75.80960937 17.00195312 75.16015625 C16.15568359 74.48855469 15.30941406 73.81695312 14.4375 73.125 C12.75299678 71.8095805 11.06434694 70.49944946 9.37109375 69.1953125 C8.62786865 68.60766113 7.88464355 68.02000977 7.11889648 67.41455078 C4.94095196 65.96058021 3.61209192 65.17458794 1 65 C-1.15329776 66.02136177 -1.15329776 66.02136177 -3.22265625 67.67578125 C-4.00833984 68.25650391 -4.79402344 68.83722656 -5.60351562 69.43554688 C-6.41498047 70.05494141 -7.22644531 70.67433594 -8.0625 71.3125 C-9.67831735 72.51701839 -11.29420009 73.72144909 -12.91015625 74.92578125 C-13.62308838 75.46630127 -14.33602051 76.00682129 -15.07055664 76.5637207 C-16.67724992 77.75974456 -18.33341835 78.88894557 -20 80 C-22.1875 79.625 -22.1875 79.625 -24 79 C-25.0710577 75.04839582 -24.88028652 72.66228253 -23.56640625 68.8046875 C-23.24736328 67.84175781 -22.92832031 66.87882812 -22.59960938 65.88671875 C-22.25736328 64.89285156 -21.91511719 63.89898437 -21.5625 62.875 C-20.89340704 60.89448485 -20.22787477 58.91276215 -19.56640625 56.9296875 C-19.26677979 56.05554199 -18.96715332 55.18139648 -18.65844727 54.28076172 C-17.86131561 51.91526914 -17.86131561 51.91526914 -18 49 C-19.50664344 47.54380976 -19.50664344 47.54380976 -21.54296875 46.2578125 C-22.65961914 45.49404297 -22.65961914 45.49404297 -23.79882812 44.71484375 C-24.58708984 44.19019531 -25.37535156 43.66554687 -26.1875 43.125 C-36.84157101 35.96274941 -36.84157101 35.96274941 -40 32 C-39.67 30.68 -39.34 29.36 -39 28 C-24.15 27.505 -24.15 27.505 -9 27 C-8.01 23.04 -7.02 19.08 -6 15 C-5.17038787 12.42244787 -4.30356349 9.85608037 -3.375 7.3125 C-2.94960938 6.13300781 -2.52421875 4.95351562 -2.0859375 3.73828125 C-1 1 -1 1 0 0 Z " fill="#000000" transform="translate(320,114)"/>
<path d="M0 0 C0.99 0 1.98 0 3 0 C5.31196189 4.8885552 7.62312191 9.77748844 9.93359375 14.66674805 C10.71691121 16.32407444 11.50043388 17.98130386 12.28417969 19.63842773 C14.16390271 23.61300833 16.04081563 27.58885481 17.91113281 31.56787109 C19.22547706 34.36377264 20.55232378 37.15294098 21.89355469 39.93603516 C22.44172852 41.08765137 22.98990234 42.23926758 23.5546875 43.42578125 C24.03147949 44.41618408 24.50827148 45.40658691 24.99951172 46.42700195 C26 49 26 49 26 53 C22.24010199 54.3279763 19.24722076 53.7264152 15.37109375 53.0390625 C13.44813477 52.70261719 13.44813477 52.70261719 11.48632812 52.359375 C10.82189697 52.23884766 10.15746582 52.11832031 9.47290039 51.99414062 C7.44228994 51.62586871 5.40994835 51.268909 3.37695312 50.9140625 C-6.51486137 49.16171288 -6.51486137 49.16171288 -10 48 C-10.40532959 49.06891479 -10.40532959 49.06891479 -10.81884766 50.15942383 C-12.92164979 55.21649345 -15.70395243 59.91314956 -18.375 64.6875 C-19.24125 66.27401367 -19.24125 66.27401367 -20.125 67.89257812 C-20.68960937 68.90126953 -21.25421875 69.90996094 -21.8359375 70.94921875 C-22.60236572 72.33113403 -22.60236572 72.33113403 -23.38427734 73.7409668 C-25.09177341 76.1283136 -26.28986038 76.97093994 -29 78 C-31.25036854 75.93174034 -32.6254799 74.0817154 -33.90112305 71.31054688 C-34.24124924 70.57968872 -34.58137543 69.84883057 -34.93180847 69.0958252 C-35.28817886 68.31139038 -35.64454926 67.52695557 -36.01171875 66.71875 C-36.38480667 65.9088562 -36.75789459 65.0989624 -37.14228821 64.26452637 C-37.92795159 62.55463488 -38.71028162 60.84320837 -39.48950195 59.13037109 C-40.6848927 56.50572469 -41.89339118 53.88741167 -43.10351562 51.26953125 C-43.86537463 49.60713325 -44.62646863 47.94438439 -45.38671875 46.28125 C-45.74916183 45.49681519 -46.11160492 44.71238037 -46.48503113 43.9041748 C-49 38.3454996 -49 38.3454996 -49 35 C-47.9275 35.061875 -46.855 35.12375 -45.75 35.1875 C-35.06322109 35.1308563 -24.94494079 31.48763766 -17.0703125 24.21875 C-12.27430231 19.01774339 -8.71462335 12.98960799 -5 7 C-3.42113168 4.53355165 -1.8347302 2.29341275 0 0 Z " fill="#000000" transform="translate(398,247)"/>
<path d="M0 0 C3.39717746 1.40301381 4.88707808 2.8679203 6.83984375 5.95703125 C7.34580078 6.74013672 7.85175781 7.52324219 8.37304688 8.33007812 C9.14745117 9.55887695 9.14745117 9.55887695 9.9375 10.8125 C16.55741841 21.24615758 24.09321932 30.19649132 36.45703125 33.6953125 C41.71370593 34.84192971 46.63011862 35.1988845 52 35 C50.59455771 39.4919457 48.84599033 43.67777903 46.84765625 47.9375 C46.54685654 48.58066162 46.24605682 49.22382324 45.93614197 49.88647461 C44.98134049 51.92577652 44.02190641 53.96286118 43.0625 56 C42.42224046 57.36705378 41.78226396 58.73424017 41.14257812 60.1015625 C39.43775546 63.73890003 37.73025162 67.37466042 36 71 C35.49911865 72.11246094 34.9982373 73.22492188 34.48217773 74.37109375 C33 77 33 77 30 78 C27.05988341 75.40624253 25.35967977 72.40798593 23.42578125 69.01953125 C23.09708542 68.44667892 22.76838959 67.8738266 22.42973328 67.28361511 C21.3861375 65.46245096 20.34924737 63.63756978 19.3125 61.8125 C18.60395552 60.57331608 17.89497587 59.33438088 17.18554688 58.09570312 C15.45198175 55.06666642 13.72440794 52.03426125 12 49 C3.52319497 50.16924052 -4.89747675 51.44536765 -13.2890625 53.11914062 C-19.61742571 54.30570873 -19.61742571 54.30570873 -23 53 C-22.47767059 47.76203369 -21.17238606 43.55639882 -18.8671875 38.80859375 C-18.55226349 38.14142838 -18.23733948 37.474263 -17.91287231 36.78688049 C-16.908989 34.66613719 -15.89212874 32.55191692 -14.875 30.4375 C-14.21531587 29.0466173 -13.55645534 27.65534366 -12.8984375 26.26367188 C-8.71754622 17.44930259 -4.39665885 8.70860202 0 0 Z " fill="#000000" transform="translate(244,247)"/>
<path d="M0 0 C4.26186286 0.17731838 4.26186286 0.17731838 6.26708984 2.01635742 C6.70230957 2.64388916 7.1375293 3.2714209 7.5859375 3.91796875 C8.09125 4.64467773 8.5965625 5.37138672 9.1171875 6.12011719 C12.21937864 10.87916041 15.21863471 15.68114118 18.125 20.5625 C18.76566406 21.59568359 19.40632813 22.62886719 20.06640625 23.69335938 C23.81412219 30.00214772 25.78137783 34.25801551 24.75 41.625 C22.17506202 44.73007227 20.66302153 45.49456835 16.6875 46.0625 C13.45055289 45.58040149 12.23955349 44.64341218 9.75 42.625 C9.74635437 43.22777267 9.74270874 43.83054535 9.73895264 44.45158386 C9.69711608 50.72991378 9.62776232 57.00751343 9.54248047 63.28540039 C9.51426887 65.62777398 9.49305532 67.97024281 9.47900391 70.31274414 C9.45757776 73.68164839 9.41092684 77.04940737 9.359375 80.41796875 C9.35753204 81.98698189 9.35753204 81.98698189 9.35565186 83.58769226 C9.26612007 88.04025232 9.19662518 90.85728074 6.92675781 94.7590332 C3.85810177 97.38955565 1.76039793 97.69535786 -2.25 97.625 C-5.05189446 95.85858828 -6.76524911 94.59450178 -8.25 91.625 C-8.36840113 90.05293357 -8.42703033 88.47616731 -8.45532227 86.89990234 C-8.47526749 85.91903656 -8.49521271 84.93817078 -8.51576233 83.92758179 C-8.53247482 82.86608917 -8.54918732 81.80459656 -8.56640625 80.7109375 C-8.58718735 79.62616119 -8.60796844 78.54138489 -8.62937927 77.42373657 C-8.69490634 73.94922379 -8.75377447 70.47463376 -8.8125 67 C-8.85568221 64.64842942 -8.8992964 62.29686674 -8.94335938 59.9453125 C-9.05059093 54.1719573 -9.15235144 48.3985248 -9.25 42.625 C-9.84941406 43.11097656 -10.44882812 43.59695312 -11.06640625 44.09765625 C-14.02734578 46.16872486 -15.70078455 46.13203078 -19.25 45.625 C-22.125 44.125 -22.125 44.125 -24.25 41.625 C-25.16920358 34.37528135 -22.817883 29.97125903 -19.1875 23.8125 C-18.68742432 22.93609863 -18.18734863 22.05969727 -17.67211914 21.15673828 C-5.72382868 0.3699073 -5.72382868 0.3699073 0 0 Z " fill="#000000" transform="translate(466.25,15.375)"/>
</svg>
