<?xml version="1.0" encoding="UTF-8"?>
<svg version="1.1" xmlns="http://www.w3.org/2000/svg" width="512" height="512">
<path d="M0 0 C0.69030304 -0.00067474 1.38060608 -0.00134949 2.09182739 -0.00204468 C40.77688718 0.05794607 75.38126074 15.52177096 103.125 42.25 C103.83011719 42.89195312 104.53523437 43.53390625 105.26171875 44.1953125 C130.05996808 67.43423987 144.20506986 104.05088636 145.41015625 137.56640625 C146.26944471 179.28486106 132.05431533 215.90014087 103.2890625 246.09375 C90.73528521 258.87635165 90.73528521 258.87635165 84.48071289 261.25610352 C81.97723281 262.969555 81.97723281 262.969555 81.67121887 265.25384521 C81.4964835 267.97841452 81.48595537 270.66454482 81.5234375 273.39453125 C81.51543121 274.39707443 81.50742493 275.39961761 81.49917603 276.43254089 C81.47605351 279.64293562 81.48558514 282.85207045 81.5 286.0625 C81.50384987 289.26198307 81.50037148 292.4609039 81.47940063 295.6603241 C81.46733448 297.65142989 81.46994265 299.64269314 81.48910522 301.63374329 C81.46485361 307.67603636 80.87537041 312.23461994 76.625 316.89453125 C72.10403655 320.4147606 69.21488811 321.37319911 63.56559753 321.39717102 C62.40899124 321.40432632 61.25238495 321.41148163 60.06072998 321.41885376 C58.15544525 321.42288712 58.15544525 321.42288712 56.21166992 321.42700195 C54.86137213 321.43326798 53.51107605 321.43991491 52.16078186 321.44691467 C47.72568967 321.4679393 43.29059719 321.47831492 38.85546875 321.48828125 C37.3279398 321.49232927 35.80041104 321.49644621 34.27288246 321.50063133 C27.09678422 321.51967877 19.92069624 321.53391125 12.74457759 321.5422433 C4.46360291 321.55201726 -3.81710457 321.57834256 -12.09798509 321.61874419 C-18.50063644 321.6489093 -24.9032112 321.6637125 -31.30593222 321.66702431 C-35.12916814 321.66937419 -38.95211846 321.67832627 -42.77527809 321.70348549 C-46.37293618 321.72677872 -49.97012088 321.73099478 -53.56783485 321.72072411 C-55.51331257 321.71999331 -57.45876632 321.73907538 -59.40414429 321.75878906 C-70.05800413 321.69529183 -70.05800413 321.69529183 -74.875 317.25 C-78.38114337 313.27005347 -80.00262522 310.98183062 -79.98852539 305.70849609 C-79.98844986 304.76767181 -79.98837433 303.82684753 -79.98829651 302.85751343 C-79.98313522 301.83976837 -79.97797394 300.82202332 -79.97265625 299.7734375 C-79.9712413 298.73305328 -79.96982635 297.69266907 -79.96836853 296.62075806 C-79.96275866 293.28880979 -79.95020447 289.95692805 -79.9375 286.625 C-79.93248627 284.36979264 -79.92792314 282.11458422 -79.92382812 279.859375 C-79.91278603 274.32289386 -79.89603827 268.78645168 -79.875 263.25 C-80.77798828 262.8156665 -80.77798828 262.8156665 -81.69921875 262.37255859 C-108.90898384 248.33412728 -128.77060819 215.88334841 -137.8762207 187.94506836 C-145.44980353 163.73706823 -147.01046959 135.98941056 -140.875 111.25 C-140.70339355 110.54665527 -140.53178711 109.84331055 -140.35498047 109.11865234 C-130.73032494 70.90386727 -105.74118097 38.84296019 -72.0480957 18.6472168 C-49.90265303 5.85225367 -25.44591486 0.02233792 0 0 Z M-58.90234375 90.86328125 C-72.01324369 106.72617207 -79.22637617 125.39472703 -79.40625 145.9453125 C-78.58418193 151.05905947 -76.09555912 154.14851982 -72.3125 157.5625 C-68.17357133 160.42791216 -64.82359763 160.66238314 -59.875 160.25 C-54.51544083 158.29191471 -51.64708169 155.26107074 -48.875 150.25 C-47.75124351 146.87873053 -47.44989458 143.78361784 -47.0625 140.25 C-45.43469148 127.39432818 -41.13002049 116.71336654 -31.26171875 107.921875 C-22.10757062 100.93002212 -13.97543105 98.21929613 -2.64477539 97.02880859 C4.26334049 96.24463963 8.77942824 94.83614322 13.5625 89.5625 C16.07173855 84.24291428 16.91020466 79.6518025 15.0625 74 C12.38929878 70.20577892 9.32756941 67.35128471 5.125 65.25 C-18.84777196 63.28975993 -42.33948704 73.55220514 -58.90234375 90.86328125 Z " fill="#000000" transform="translate(255.875,111.75)"/>
<path d="M0 0 C1.02035591 -0.0098568 1.02035591 -0.0098568 2.06132507 -0.01991272 C4.30618413 -0.0395766 6.55097647 -0.05129338 8.79589844 -0.0612793 C9.56555687 -0.06535482 10.3352153 -0.06943035 11.12819672 -0.07362938 C15.20281198 -0.09446162 19.27739385 -0.10877507 23.35205078 -0.11816406 C27.5461804 -0.12921699 31.73977782 -0.16361168 35.93371964 -0.20333576 C39.17151837 -0.22956413 42.40919149 -0.23786142 45.6470871 -0.24144554 C47.19235576 -0.24629619 48.73761938 -0.25786656 50.28278351 -0.27648354 C65.3469789 -0.44669139 65.3469789 -0.44669139 72.15527344 4.17700195 C76.77700576 9.03574619 77.52350714 13.10367029 77.42871094 19.60668945 C76.98157201 23.80979539 75.77425035 25.81933924 73.15527344 29.17700195 C68.06327135 32.64855328 64.76217588 33.67939226 58.47924805 33.69458008 C57.38026436 33.70509399 57.38026436 33.70509399 56.25907898 33.71582031 C53.85819625 33.7333014 51.45851007 33.72181516 49.05761719 33.70825195 C47.37805456 33.71094945 45.69849346 33.71483401 44.01893616 33.71984863 C40.50783341 33.72573 36.99713908 33.71722394 33.48608398 33.69848633 C28.99468763 33.67567961 24.50424657 33.68883886 20.01288509 33.71277618 C16.54778391 33.7272562 13.08290786 33.72261845 9.61779976 33.71226501 C7.96206104 33.70960472 6.3063016 33.7128429 4.65058708 33.72218323 C2.33381144 33.73238768 0.01856644 33.71679659 -2.2980957 33.69458008 C-3.61379044 33.69139771 -4.92948517 33.68821533 -6.28504944 33.68493652 C-11.66835264 32.91678658 -14.71189435 30.52415378 -18.15722656 26.42700195 C-20.88670228 21.1702339 -21.57093605 16.67022412 -19.84472656 11.05200195 C-17.96562571 6.66166034 -14.8732903 3.68077597 -10.84472656 1.17700195 C-7.24837883 -0.01662637 -3.7675229 0.03019492 0 0 Z " fill="#000000" transform="translate(227.8447265625,463.822998046875)"/>
<path d="M0 0 C4.61241388 2.76979253 8.3605101 6.01551328 12.16796875 9.76171875 C12.72946121 10.31181107 13.29095367 10.86190338 13.86946106 11.42866516 C15.04781508 12.58823491 16.22337139 13.75065394 17.39624023 14.91577148 C19.17930369 16.67939306 20.98257279 18.42050173 22.78710938 20.16210938 C34.40373085 31.5610092 34.40373085 31.5610092 35 39 C34.55525773 45.46324441 32.62074993 49.48926792 28 54 C24.71530218 56.0779284 21.98058445 56.32594676 18.125 56.375 C17.11695313 56.40335937 16.10890625 56.43171875 15.0703125 56.4609375 C8.64936201 55.49697801 4.20175989 50.5009386 -0.203125 46.0625 C-0.76698914 45.50054932 -1.33085327 44.93859863 -1.9118042 44.35961914 C-3.09405122 43.17872504 -4.27380883 41.99533386 -5.45117188 40.80957031 C-7.25170712 38.99828269 -9.06272164 37.19796715 -10.875 35.3984375 C-12.02668381 34.24543272 -13.17774741 33.09180803 -14.328125 31.9375 C-14.86769836 31.4019751 -15.40727173 30.8664502 -15.9631958 30.31469727 C-20.35373923 25.868908 -22.28653402 22.9420449 -22.375 16.6875 C-22.2506109 11.19974537 -21.42699933 8.30571711 -18 4 C-12.55483181 -0.33390937 -6.86995971 -1.32903915 0 0 Z " fill="#000000" transform="translate(398,376)"/>
<path d="M0 0 C3.75585079 1.89418449 6.33947964 4.52552697 8.20703125 8.29296875 C9.95882859 13.7453084 9.79389888 18.52431622 7.20507812 23.61791992 C4.92909219 27.4947416 2.12221494 30.51081389 -1.0703125 33.6484375 C-1.91323853 34.49211128 -1.91323853 34.49211128 -2.77319336 35.35282898 C-3.95294585 36.53025711 -5.1363531 37.70403374 -6.32324219 38.87426758 C-8.13661213 40.66390616 -9.93614855 42.4666432 -11.734375 44.27148438 C-12.88722898 45.418765 -14.04084859 46.5652769 -15.1953125 47.7109375 C-15.99859985 48.51559196 -15.99859985 48.51559196 -16.81811523 49.33650208 C-21.50817157 53.93843831 -24.44612961 55.63917428 -31.0078125 55.72265625 C-36.21548157 55.62129043 -39.23861883 55.04714023 -43.1328125 51.34765625 C-46.72976059 47.07020447 -48.39499305 42.95366024 -48.1328125 37.34765625 C-46.26937202 30.88063987 -43.64771096 27.14379978 -38.85546875 22.51171875 C-38.24771103 21.90629242 -37.63995331 21.30086609 -37.01377869 20.67709351 C-35.73616258 19.40916105 -34.45256764 18.14722718 -33.16333008 16.89111328 C-31.19209855 14.96952324 -29.24038964 13.02967395 -27.29101562 11.0859375 C-26.04275842 9.8517594 -24.79344528 8.61864817 -23.54296875 7.38671875 C-22.96055923 6.80967194 -22.37814972 6.23262512 -21.77809143 5.63809204 C-15.30815828 -0.64397666 -8.93115962 -2.73169168 0 0 Z " fill="#000000" transform="translate(128.1328125,376.65234375)"/>
<path d="M0 0 C0.81805115 -0.01283524 1.63610229 -0.02567047 2.47894287 -0.03889465 C3.80082611 -0.04997505 3.80082611 -0.04997505 5.14941406 -0.0612793 C6.06080139 -0.06935104 6.97218872 -0.07742279 7.91119385 -0.08573914 C9.84116723 -0.09956945 11.77116497 -0.11029631 13.70117188 -0.11816406 C16.6401255 -0.13535234 19.57794678 -0.17924473 22.51660156 -0.22338867 C24.39419748 -0.23351829 26.27180294 -0.24203355 28.14941406 -0.2487793 C29.02257263 -0.26628738 29.8957312 -0.28379547 30.79534912 -0.30183411 C36.68689354 -0.2810842 40.07800307 0.76767676 44.91503906 4.17700195 C48.93847726 8.72983991 50.17569364 13.20279906 49.91503906 19.17700195 C48.34306122 24.41692811 46.11028487 27.68096378 41.91503906 31.17700195 C37.28519065 33.65799387 32.78925237 33.48325927 27.66894531 33.4777832 C26.78021225 33.48206833 25.89147919 33.48635345 24.97581482 33.49076843 C23.10066579 33.49649818 21.22549454 33.497022 19.3503418 33.49267578 C16.49066031 33.48951645 13.63201462 33.51298946 10.77246094 33.53833008 C8.94629036 33.54060337 7.12011702 33.54130643 5.29394531 33.5402832 C4.01868736 33.55409782 4.01868736 33.55409782 2.71766663 33.56819153 C-2.99040668 33.5239839 -7.34648725 32.67480218 -11.72949219 28.67700195 C-16.17270131 22.97067318 -16.88024033 18.25719767 -16.08496094 11.17700195 C-12.69104001 4.3891601 -7.70509066 0.10558988 0 0 Z " fill="#000000" transform="translate(448.0849609375,239.822998046875)"/>
<path d="M0 0 C0.82127884 -0.00960754 1.64255768 -0.01921509 2.48872375 -0.02911377 C3.81531258 -0.03548859 3.81531258 -0.03548859 5.16870117 -0.04199219 C6.53933968 -0.0505423 6.53933968 -0.0505423 7.93766785 -0.05926514 C9.87184492 -0.06871136 11.80603807 -0.07524762 13.74023438 -0.07910156 C16.68998528 -0.08879592 19.63903599 -0.11981817 22.58862305 -0.15136719 C24.46947829 -0.15789867 26.35033851 -0.16314857 28.23120117 -0.16699219 C29.10952103 -0.17933899 29.98784088 -0.19168579 30.89277649 -0.20440674 C36.6912616 -0.18345924 41.08528114 0.59454542 45.54370117 4.66113281 C49.7736411 10.09356402 50.69543071 14.42095343 49.89916992 21.16113281 C48.08347642 26.48370862 44.76087922 29.47167661 39.89916992 32.16113281 C35.9821332 33.46681172 32.2231178 33.36324245 28.13745117 33.39941406 C26.84051582 33.41152168 26.84051582 33.41152168 25.51737976 33.4238739 C23.68576047 33.43770363 21.85411554 33.44843076 20.02246094 33.45629883 C18.15747479 33.46780009 16.29252108 33.48822248 14.42773438 33.51782227 C11.72658009 33.56069773 9.02640441 33.57669711 6.32495117 33.58691406 C5.50070145 33.60442215 4.67645172 33.62193024 3.82722473 33.63996887 C-1.88934747 33.61881351 -6.3674895 32.47287122 -11.10083008 29.16113281 C-15.26997665 23.92297431 -16.64810432 19.83787859 -16.10083008 13.16113281 C-14.29090396 7.88873934 -11.86630626 4.21592524 -7.10083008 1.16113281 C-4.39523141 0.25926659 -2.78258075 0.02633817 0 0 Z " fill="#000000" transform="translate(31.100830078125,239.8388671875)"/>
<path d="M0 0 C5.25352046 2.6782344 9.17233827 5.72626626 13.30078125 9.90234375 C14.14445503 10.74171227 14.14445503 10.74171227 15.00517273 11.59803772 C16.18267225 12.7735097 17.35644802 13.95272278 18.52661133 15.13549805 C20.31463486 16.93965413 22.11819629 18.72715763 23.92382812 20.51367188 C25.07127612 21.66310135 26.21779365 22.81346059 27.36328125 23.96484375 C27.89971756 24.49520737 28.43615387 25.02557098 28.98884583 25.57200623 C33.34567941 30.0116055 35.27694061 33.73034092 35.375 39.9375 C35.26857783 44.71230817 34.21792805 47.34721681 31 51 C26.9791746 54.54215571 24.58718367 56.1529603 19.25 56.25 C18.40953125 56.27578125 17.5690625 56.3015625 16.703125 56.328125 C10.36358735 55.55858575 6.17264334 51.63035505 1.83203125 47.265625 C1.27053879 46.70937439 0.70904633 46.15312378 0.13053894 45.58001709 C-1.04881878 44.40705269 -2.22435837 43.23023808 -3.39624023 42.04980469 C-5.18056619 40.25696689 -6.98275254 38.4835872 -8.78710938 36.7109375 C-9.93602729 35.56363193 -11.08385119 34.41522954 -12.23046875 33.265625 C-13.03208687 32.48085785 -13.03208687 32.48085785 -13.84989929 31.68023682 C-18.2482503 27.19952035 -20.62904571 22.91464088 -21.4375 16.5625 C-20.69246373 10.49577606 -18.7460153 6.38968565 -13.9375 2.5625 C-9.4154676 0.15716361 -5.08497668 -0.92997057 0 0 Z " fill="#000000" transform="translate(102,81)"/>
<path d="M0 0 C4.37562998 2.83622924 6.33650345 6.07905212 7.89453125 11.0625 C8.31308186 14.11884263 8.33924301 17.13305694 8.328125 20.21484375 C8.33336685 21.07380753 8.3386087 21.9327713 8.3440094 22.81776428 C8.35040226 24.62548751 8.34912824 26.43325249 8.34057617 28.2409668 C8.33206569 30.98888053 8.36086528 33.73471293 8.39257812 36.48242188 C8.39419054 38.24739522 8.39361184 40.0123722 8.390625 41.77734375 C8.40747597 42.99489601 8.40747597 42.99489601 8.42466736 44.23704529 C8.34648271 50.71814571 6.67008128 56.20968626 2.0703125 60.9375 C-3.01877677 64.01015767 -7.18703024 65.05257336 -13.10546875 64.0625 C-18.37869028 62.23715409 -20.90237961 59.45530797 -24.10546875 55.0625 C-25.0031158 52.36955884 -25.24451387 50.74732002 -25.2824707 47.97753906 C-25.29530594 47.15948792 -25.30814117 46.34143677 -25.32136536 45.49859619 C-25.32875229 44.6173407 -25.33613922 43.73608521 -25.34375 42.828125 C-25.35182175 41.91673767 -25.35989349 41.00535034 -25.36820984 40.06634521 C-25.38204015 38.13637183 -25.39276702 36.20637409 -25.40063477 34.27636719 C-25.41782304 31.33741356 -25.46171543 28.39959228 -25.50585938 25.4609375 C-25.51598899 23.58334158 -25.52450425 21.70573612 -25.53125 19.828125 C-25.54875809 18.95496643 -25.56626617 18.08180786 -25.58430481 17.18218994 C-25.56357111 11.29524712 -24.53982639 7.88229773 -21.10546875 3.0625 C-14.49558142 -2.06353507 -7.84230888 -3.49193716 0 0 Z " fill="#000000" transform="translate(265.10546875,16.9375)"/>
<path d="M0 0 C4.25906653 2.80917154 7.84450504 5.95605265 9.640625 10.85546875 C10.62643387 16.22384095 9.52206642 21.17838335 6.9375 25.9375 C3.64465502 30.14760666 -0.23509405 33.8481244 -4.06762695 37.56005859 C-5.87591011 39.31338245 -7.65882674 41.08973187 -9.43945312 42.87109375 C-10.58973856 44.00663565 -11.74138643 45.14079942 -12.89453125 46.2734375 C-13.68704033 47.06093887 -13.68704033 47.06093887 -14.49555969 47.86434937 C-19.01601698 52.21529452 -23.52662976 55.35342301 -29.9375 55.4375 C-35.35153612 55.25784873 -39.05699972 53.54917412 -43.0625 49.9375 C-46.44317068 45.50036973 -46.44246609 41.10707332 -46.55859375 35.71875 C-45.45300381 29.52048201 -40.49093772 25.04806452 -36.1953125 20.734375 C-35.63810516 20.17051086 -35.08089783 19.60664673 -34.50680542 19.0256958 C-33.33447354 17.84329773 -32.15947084 16.66354232 -30.98193359 15.48632812 C-29.1890503 13.6890541 -27.41279527 11.87636538 -25.63671875 10.0625 C-24.49056529 8.91048054 -23.34346136 7.75940577 -22.1953125 6.609375 C-21.67011017 6.06980164 -21.14490784 5.53022827 -20.60379028 4.9743042 C-14.70203154 -0.85585202 -7.96759123 -2.76426634 0 0 Z " fill="#000000" transform="translate(422.0625,82.0625)"/>
</svg>
