<svg width="256" height="256" viewBox="0 0 200 200" fill="none" xmlns="http://www.w3.org/2000/svg" role="img" aria-label="Logotipo CTG Code">
  <!-- Llaves de codigo: forma { } con acabado recto/anguloso, color noche Caribe -->
  <g stroke="#0C2233" stroke-width="9" stroke-linecap="square" stroke-linejoin="miter" fill="none"> <!-- 0C2233 / F6F1E7-->
    <path d="M58 40 L46 46 L46 90 L34 100 L46 110 L46 154 L58 160" />
    <path d="M142 40 L154 46 L154 90 L166 100 L154 110 L154 154 L142 160" />
  </g>
  <!-- Sol: anillo + 8 rayos triangulares pegados al circulo -->
  <g fill="#F4A24C">
    <path d="M100 50 L107 66 L93 66 Z" />
    <path d="M100 50 L107 66 L93 66 Z" transform="rotate(45 100 100)" />
    <path d="M100 50 L107 66 L93 66 Z" transform="rotate(90 100 100)" />
    <path d="M100 50 L107 66 L93 66 Z" transform="rotate(135 100 100)" />
    <path d="M100 50 L107 66 L93 66 Z" transform="rotate(180 100 100)" />
    <path d="M100 50 L107 66 L93 66 Z" transform="rotate(225 100 100)" />
    <path d="M100 50 L107 66 L93 66 Z" transform="rotate(270 100 100)" />
    <path d="M100 50 L107 66 L93 66 Z" transform="rotate(315 100 100)" />
  </g>
  <circle cx="100" cy="100" r="22" fill="none" stroke="#F4A24C" stroke-width="8" />
</svg>