<?xml version="1.0" encoding="UTF-8"?>
<svg version="1.1" xmlns="http://www.w3.org/2000/svg" width="512" height="512">
<path d="M0 0 C1.24245483 -0.00574036 1.24245483 -0.00574036 2.51000977 -0.01159668 C4.25831317 -0.01431425 6.00665734 -0.00696381 7.75488281 0.00976562 C10.42865777 0.03117918 13.09974596 0.00996056 15.7734375 -0.015625 C17.47396425 -0.01298169 19.17448934 -0.00785665 20.875 0 C22.07201538 -0.01214539 22.07201538 -0.01214539 23.29321289 -0.02453613 C26.73424611 0.03350048 28.97546053 0.20828879 31.83178711 2.20483398 C33.65275522 4.8431197 34.67407467 7.24434899 35.69140625 10.28515625 C36.07103516 11.38666016 36.45066406 12.48816406 36.84179688 13.62304688 C37.22400391 14.76837891 37.60621094 15.91371094 38 17.09375 C38.76422347 19.36855877 39.53603652 21.64083575 40.31640625 23.91015625 C40.6522876 24.9163501 40.98816895 25.92254395 41.33422852 26.95922852 C42.43596878 29.52768032 43.24503645 30.83797391 45.4375 32.53125 C48.1427945 33.51737348 50.80927407 34.39341887 53.5625 35.21875 C63.54609157 38.36290004 73.59905958 42.31124588 82.5390625 47.828125 C85.56278029 48.94802048 87.32552876 48.40130228 90.4375 47.53125 C94.6990433 45.56316122 98.80552521 43.29679537 102.91796875 41.03710938 C108.39624901 38.1566479 112.24567119 36.33666484 118.4375 37.53125 C121.46952228 39.51455461 123.89744779 41.96232672 126.4375 44.53125 C127.92382582 45.90706343 129.41214983 47.28072094 130.90234375 48.65234375 C132.39588396 50.08838985 133.88675577 51.52721614 135.375 52.96875 C136.14134766 53.68095703 136.90769531 54.39316406 137.69726562 55.12695312 C143.81901927 61.09688294 143.81901927 61.09688294 144.67578125 65.55859375 C144.38495408 70.40730243 143.0368292 73.48055872 140.6875 77.65625 C140.3265625 78.33300781 139.965625 79.00976562 139.59375 79.70703125 C138.00440966 82.68416515 136.3778165 85.63829702 134.734375 88.5859375 C133.26801442 91.91616605 132.79817635 94.92448648 132.4375 98.53125 C131.39851563 98.48484375 130.35953125 98.4384375 129.2890625 98.390625 C119.74531714 98.09277675 111.35835059 98.19621496 103.8125 104.84375 C101.4375 106.53125 101.4375 106.53125 97.8125 106.28125 C97.12542969 106.15878906 96.43835938 106.03632813 95.73046875 105.91015625 C86.04541154 104.30972942 77.35095507 105.81042434 69.00390625 111.0625 C65.12735633 113.77106541 65.12735633 113.77106541 62.4375 117.53125 C59.3200932 116.09892796 56.51992539 114.30808799 53.66796875 112.40869141 C36.4456817 100.97875852 17.97543989 95.65800333 -2.703125 99.15234375 C-20.30802375 102.73975708 -36.77605247 112.18990995 -47.65234375 126.6171875 C-59.62071141 144.87567887 -64.95068922 165.27682121 -60.47949219 186.91772461 C-57.39731885 199.69995568 -51.3599188 210.7680467 -42.5625 220.53125 C-41.73298828 221.48257813 -41.73298828 221.48257813 -40.88671875 222.453125 C-29.4234064 234.81927579 -11.28996302 242.48775987 5.4375 243.53125 C6.23285156 243.58410156 7.02820313 243.63695312 7.84765625 243.69140625 C24.1916363 244.24503149 39.91652214 239.07200932 53.29296875 229.88671875 C55.4375 228.53125 55.4375 228.53125 57.4375 228.53125 C61.31890982 236.20540798 65.18409673 243.88829056 68.875 251.65625 C69.34808594 252.64882813 69.82117188 253.64140625 70.30859375 254.6640625 C72.5109615 260.25761935 72.5769112 265.83038354 72.53515625 271.7734375 C72.53303383 272.92599533 72.53303383 272.92599533 72.53086853 274.10183716 C72.52530683 276.53668239 72.5127616 278.97143294 72.5 281.40625 C72.49498004 283.06510283 72.49041801 284.72395712 72.48632812 286.3828125 C72.47534998 290.4323277 72.45811206 294.48177284 72.4375 298.53125 C65.32337798 302.31995753 58.35380942 305.0253543 50.61132812 307.203125 C49.85400391 307.43515625 49.09667969 307.6671875 48.31640625 307.90625 C47.30429077 308.19628906 47.30429077 308.19628906 46.27172852 308.4921875 C42.15648978 310.82340753 40.92077158 315.62840659 39.5703125 319.91015625 C39.07724609 321.41545898 39.07724609 321.41545898 38.57421875 322.95117188 C37.89932861 325.04750053 37.23266185 327.1464943 36.57421875 329.24804688 C36.24292969 330.25029297 35.91164062 331.25253906 35.5703125 332.28515625 C35.28043457 333.19595947 34.99055664 334.1067627 34.69189453 335.04516602 C33.04849535 338.30221815 31.58375912 339.66724491 28.4375 341.53125 C25.57435407 341.92194705 23.10678093 342.09350837 20.25 342.0625 C19.46987549 342.0663269 18.68975098 342.07015381 17.88598633 342.07409668 C16.24201156 342.07681005 14.59799319 342.06948905 12.95410156 342.05273438 C10.44497977 342.03131386 7.93872078 342.05255273 5.4296875 342.078125 C3.82811871 342.07548162 2.2265517 342.07035642 0.625 342.0625 C-0.12096436 342.07059692 -0.86692871 342.07869385 -1.63549805 342.08703613 C-5.13245031 342.02442625 -7.38509142 341.63396659 -10.42944336 339.87133789 C-12.89883292 337.16227311 -13.7957712 335.05096012 -14.87890625 331.55859375 C-15.25080078 330.41197266 -15.62269531 329.26535156 -16.00585938 328.08398438 C-16.37517578 326.89095703 -16.74449219 325.69792969 -17.125 324.46875 C-17.86388527 322.09895735 -18.61469437 319.73284074 -19.37890625 317.37109375 C-19.70318604 316.32300537 -20.02746582 315.27491699 -20.36157227 314.19506836 C-21.70837286 311.20768448 -22.75616311 310.15949339 -25.5625 308.53125 C-28.30738666 307.56598384 -31.03018212 306.68262355 -33.8125 305.84375 C-42.91437504 302.97334485 -51.16291913 299.02031171 -59.5625 294.53125 C-62.36543683 293.12978158 -64.44967802 293.32396625 -67.5625 293.53125 C-70.1985096 294.4960673 -70.1985096 294.4960673 -72.71484375 295.9375 C-73.65650391 296.43378906 -74.59816406 296.93007813 -75.56835938 297.44140625 C-77.51976863 298.4996655 -79.47029359 299.55955701 -81.41992188 300.62109375 C-91.23801001 305.78850856 -91.23801001 305.78850856 -96.5625 304.53125 C-99.55400798 302.51440217 -102.01541858 300.07482545 -104.5625 297.53125 C-105.70307861 296.45786377 -105.70307861 296.45786377 -106.86669922 295.36279297 C-109.27471017 293.09413336 -111.6394959 290.7867225 -114 288.46875 C-114.81404297 287.69208984 -115.62808594 286.91542969 -116.46679688 286.11523438 C-117.23958984 285.35404297 -118.01238281 284.59285156 -118.80859375 283.80859375 C-119.50654053 283.13046631 -120.2044873 282.45233887 -120.92358398 281.75366211 C-123.02300134 278.90679838 -123.44319976 277.06154075 -123.5625 273.53125 C-122.55859375 270.54272461 -122.55859375 270.54272461 -121 267.43359375 C-120.17628906 265.73686523 -120.17628906 265.73686523 -119.3359375 264.00585938 C-118.75070313 262.83861328 -118.16546875 261.67136719 -117.5625 260.46875 C-116.40413787 258.15075 -115.25774085 255.82672135 -114.125 253.49609375 C-113.61066406 252.4712085 -113.09632812 251.44632324 -112.56640625 250.39038086 C-111.15651374 246.37499876 -111.89274436 244.10792346 -113.51464844 240.28979492 C-113.8965332 239.53802979 -114.27841797 238.78626465 -114.671875 238.01171875 C-115.09460693 237.1614209 -115.51733887 236.31112305 -115.95288086 235.43505859 C-116.40155518 234.53867676 -116.85022949 233.64229492 -117.3125 232.71875 C-121.20120049 224.80623374 -124.2394156 217.09389844 -126.52734375 208.5859375 C-127.58842385 205.4547502 -128.05807576 204.53431449 -130.5625 202.53125 C-133.29881166 201.3617835 -133.29881166 201.3617835 -136.4375 200.41015625 C-137.58734375 200.03181641 -138.7371875 199.65347656 -139.921875 199.26367188 C-142.34782313 198.48408876 -144.77491058 197.70804213 -147.203125 196.93554688 C-148.35296875 196.55591797 -149.5028125 196.17628906 -150.6875 195.78515625 C-152.26917969 195.27964233 -152.26917969 195.27964233 -153.8828125 194.76391602 C-156.99286318 193.33328137 -158.07021487 192.6116205 -159.5625 189.53125 C-159.86740771 186.60413598 -160.00685983 183.89535108 -159.99609375 180.96875 C-160.0013356 180.14044678 -160.00657745 179.31214355 -160.01197815 178.45874023 C-160.01839112 176.71046061 -160.01707072 174.96213779 -160.00854492 173.21386719 C-160.00002862 170.54023448 -160.02881413 167.86873453 -160.06054688 165.1953125 C-160.06215888 163.49479231 -160.06158136 161.79426833 -160.05859375 160.09375 C-160.06982773 159.29573975 -160.08106171 158.49772949 -160.09263611 157.67553711 C-160.04946698 154.23535361 -159.87977177 151.9914084 -157.90258789 149.1237793 C-155.1842908 147.27386256 -152.78618475 146.39409354 -149.625 145.48828125 C-148.48289063 145.13572266 -147.34078125 144.78316406 -146.1640625 144.41992188 C-143.76831144 143.70405483 -141.36715752 143.00602037 -138.9609375 142.32617188 C-132.74518971 140.54071188 -132.74518971 140.54071188 -127.95605469 136.48779297 C-126.91664858 134.187653 -126.20264396 131.97037456 -125.5625 129.53125 C-125.10012837 128.26653693 -124.62679 127.00575884 -124.140625 125.75 C-123.70234375 124.5228125 -123.2640625 123.295625 -122.8125 122.03125 C-120.33736364 115.18329048 -117.3674228 108.66687294 -114.01464844 102.203125 C-111.95692466 98.07574861 -111.29579898 95.93641241 -112.5625 91.53125 C-113.35382614 89.73643548 -114.20520052 87.96738873 -115.1015625 86.22265625 C-115.59914062 85.22814453 -116.09671875 84.23363281 -116.609375 83.20898438 C-117.66148647 81.13210591 -118.72139775 79.05916034 -119.7890625 76.99023438 C-120.5315625 75.4965332 -120.5315625 75.4965332 -121.2890625 73.97265625 C-121.74877441 73.07232666 -122.20848633 72.17199707 -122.68212891 71.24438477 C-123.77663845 67.87131638 -123.53590596 65.92346555 -122.5625 62.53125 C-121.22583008 60.49194336 -121.22583008 60.49194336 -119.51953125 58.68359375 C-118.88869629 58.0066748 -118.25786133 57.32975586 -117.60791016 56.63232422 C-116.9329248 55.93896973 -116.25793945 55.24561523 -115.5625 54.53125 C-114.88880371 53.8314502 -114.21510742 53.13165039 -113.52099609 52.41064453 C-111.44944804 50.28539149 -109.3543981 48.18644617 -107.25 46.09375 C-106.53521484 45.37509766 -105.82042969 44.65644531 -105.08398438 43.91601562 C-104.40013672 43.23345703 -103.71628906 42.55089844 -103.01171875 41.84765625 C-102.39643311 41.23349854 -101.78114746 40.61934082 -101.1472168 39.98657227 C-98.01621651 37.1112229 -95.19333623 37.14128998 -91.09863281 37.18798828 C-86.51492521 37.80838613 -82.8685968 40.14496455 -78.9375 42.46875 C-71.26111537 47.089254 -71.26111537 47.089254 -62.5625 48.53125 C-59.86863713 47.45893565 -57.61384966 46.38903105 -55.125 44.96875 C-46.5221903 40.35648562 -37.67017172 36.84959446 -28.39111328 33.82299805 C-24.3357975 32.58770178 -24.3357975 32.58770178 -21.32617188 29.80029297 C-19.85911296 26.77670066 -18.90886026 23.61069795 -17.88378906 20.41601562 C-17.37452792 18.83061748 -16.86255794 17.2460874 -16.34814453 15.66235352 C-15.83155502 14.05559641 -15.32946221 12.44409316 -14.84326172 10.82788086 C-14.60623535 10.07385986 -14.36920898 9.31983887 -14.125 8.54296875 C-13.81755859 7.52916138 -13.81755859 7.52916138 -13.50390625 6.49487305 C-10.50703848 0.24388564 -6.43385896 -0.06528045 0 0 Z " fill="#000000" transform="translate(159.5625,85.46875)"/>
<path d="M0 0 C1.03844559 0.27906189 2.07689117 0.55812378 3.14680481 0.84564209 C5.3291188 1.4353075 7.50990866 2.03063997 9.68920898 2.63134766 C13.01570213 3.54582235 16.3480169 4.43613609 19.68164062 5.32421875 C21.80898455 5.9022094 23.93595157 6.48158941 26.0625 7.0625 C27.0532402 7.32621399 28.04398041 7.58992798 29.06474304 7.8616333 C35.94134812 9.78080345 40.81830066 11.59423657 45.20703125 17.484375 C49.05793053 25.03795197 46.31128554 33.58182505 44.19921875 41.2890625 C43.78774094 42.82894333 43.78774094 42.82894333 43.36795044 44.39993286 C42.78677939 46.56128651 42.19983308 48.72109466 41.60742188 50.87939453 C40.7128735 54.15051151 39.84561652 57.42803263 38.98046875 60.70703125 C38.40919292 62.81815303 37.83632712 64.92884534 37.26171875 67.0390625 C37.00832733 68.00399628 36.75493591 68.96893005 36.49386597 69.96310425 C34.04604009 78.73548447 30.01035745 86.30975072 24.76953125 93.734375 C18.81652263 102.42890074 15.73108592 111.63517534 15.67431641 122.11914062 C15.66923569 122.78483566 15.66415497 123.4505307 15.65892029 124.13639832 C15.64826237 125.57465829 15.63962444 127.01293437 15.63280106 128.45121765 C15.62095501 130.72981264 15.60148994 133.00822293 15.5796814 135.28674316 C15.51824214 141.76255138 15.46399 148.23833646 15.43066406 154.71435547 C15.40970145 158.6819585 15.37439342 162.64921699 15.32990646 166.61662292 C15.3157674 168.12521814 15.30702875 169.63387422 15.30385208 171.14253235 C15.29893437 173.25359119 15.27575873 175.3637367 15.24853516 177.47460938 C15.2404483 178.67420288 15.23236145 179.87379639 15.22402954 181.10974121 C14.79476617 184.59985795 13.92630916 186.49906841 11.83203125 189.296875 C8.5571654 190.93430793 4.9310077 190.46229553 1.33081055 190.47387695 C0.01105728 190.48373375 0.01105728 190.48373375 -1.33535767 190.49378967 C-4.25482259 190.51354379 -7.17423603 190.52518974 -10.09375 190.53515625 C-11.58758241 190.54126954 -11.58758241 190.54126954 -13.11159325 190.54750633 C-18.38225473 190.56837573 -23.6528901 190.58267389 -28.92358398 190.59204102 C-34.37129217 190.60310947 -39.81859233 190.63751202 -45.2661562 190.67721272 C-49.45174425 190.70334093 -53.63723452 190.71172946 -57.82289696 190.71532249 C-59.83116602 190.72019799 -61.83943044 190.73183926 -63.84762001 190.75036049 C-66.65826498 190.77467195 -69.46784683 190.77380158 -72.27856445 190.7668457 C-73.52326256 190.78606079 -73.52326256 190.78606079 -74.79310608 190.80566406 C-78.59609377 190.77135427 -80.7764569 190.50639054 -84.18630981 188.68162537 C-86.80466352 185.53066944 -86.78245967 183.7427593 -86.76391602 179.67089844 C-86.77000381 178.68444839 -86.77000381 178.68444839 -86.7762146 177.67807007 C-86.78172649 176.251808 -86.7757379 174.82546525 -86.75955391 173.39928436 C-86.73403166 171.12566396 -86.73896838 168.85384897 -86.75144958 166.58013916 C-86.77219862 161.73551958 -86.75259782 156.89145753 -86.73046875 152.046875 C-86.70921615 146.46834822 -86.7051856 140.89041369 -86.73097038 135.31189728 C-86.73427133 133.10069664 -86.71330286 130.89068835 -86.69056702 128.67962646 C-86.65877335 113.92389684 -89.96835981 101.11023531 -97.29296875 88.171875 C-103.96790703 76.07054804 -106.34756782 66.70408776 -106.23046875 52.859375 C-106.22595703 51.84166016 -106.22144531 50.82394531 -106.21679688 49.77539062 C-106.20509312 47.28248991 -106.18869723 44.78971426 -106.16796875 42.296875 C-105.49902588 42.50836182 -104.83008301 42.71984863 -104.14086914 42.93774414 C-103.25391357 43.21223389 -102.36695801 43.48672363 -101.453125 43.76953125 C-100.14033569 44.17957397 -100.14033569 44.17957397 -98.80102539 44.59790039 C-91.96267467 46.41321779 -86.48481492 45.6109706 -80.171875 42.50390625 C-77.36282995 40.81190835 -75.31971089 38.75600887 -73.16796875 36.296875 C-71.83463542 34.96354167 -70.50130208 33.63020833 -69.16796875 32.296875 C-67.47526042 33.30598958 -65.78255208 34.31510417 -64.08984375 35.32421875 C-58.50179395 38.15231712 -51.64342039 38.30552342 -45.69140625 36.578125 C-40.87482046 34.58061116 -37.56280779 32.23926872 -34.16796875 28.296875 C-31.6509497 29.54023835 -29.19254096 30.83336029 -26.73046875 32.1875 C-21.14428619 34.98059128 -15.17936838 36.44245792 -9.16796875 38.046875 C-8.01167969 38.36269531 -6.85539062 38.67851562 -5.6640625 39.00390625 C-2.83397802 39.77574747 -0.00204406 40.53984497 2.83203125 41.296875 C2.53681763 43.02287042 2.23628283 44.7479561 1.93359375 46.47265625 C1.76682129 47.43341064 1.60004883 48.39416504 1.42822266 49.3840332 C0.5884012 53.48719036 -0.71537484 57.37487145 -2.16796875 61.296875 C-2.91820312 61.39484375 -3.6684375 61.4928125 -4.44140625 61.59375 C-16.74166692 63.39076541 -27.29293963 67.0334805 -35.35546875 76.921875 C-41.01992606 84.95426118 -45.27182028 95.36221121 -44.16796875 105.296875 C-41.97156402 107.4318043 -41.97156402 107.4318043 -39.16796875 108.296875 C-38.17796875 107.966875 -37.18796875 107.636875 -36.16796875 107.296875 C-35.40765403 104.75550808 -34.81818006 102.32435935 -34.29296875 99.734375 C-31.93248184 89.41122441 -28.06189201 82.46625135 -19.16796875 76.296875 C-12.6127346 72.59271872 -6.41397064 71.81914202 1.046875 71.66796875 C3.76167771 71.52530039 3.76167771 71.52530039 5.3762207 70.20703125 C7.47412881 67.45438442 8.04418207 64.7057617 8.91015625 61.36328125 C9.08585144 60.68893539 9.26154663 60.01458954 9.44256592 59.31980896 C9.81056244 57.89639998 10.1733468 56.47163462 10.53125 55.0456543 C11.08016145 52.86679699 11.65013979 50.69424336 12.22265625 48.52148438 C12.57810018 47.13574366 12.93230865 45.74968534 13.28515625 44.36328125 C13.60645508 43.10459229 13.92775391 41.84590332 14.25878906 40.54907227 C14.78036854 37.58997506 14.88760011 36.05370644 13.83203125 33.296875 C12.46498047 32.96816406 12.46498047 32.96816406 11.0703125 32.6328125 C7.49821113 31.76449259 3.9354619 30.8620662 0.375 29.94726562 C-1.38392979 29.49740109 -3.14446776 29.053795 -4.90625 28.61523438 C-7.72899448 27.9066201 -10.54223357 27.1672558 -13.35546875 26.421875 C-14.25160889 26.20192871 -15.14774902 25.98198242 -16.07104492 25.75537109 C-21.99578243 24.14468656 -24.7480505 22.43703269 -28.16796875 17.296875 C-29.9050103 13.8227919 -29.62838491 10.09530831 -29.16796875 6.296875 C-22.88089129 -6.27727992 -11.35653739 -3.13489657 0 0 Z " fill="#000000" transform="translate(335.16796875,236.703125)"/>
<path d="M0 0 C2.27374727 1.68720836 4.06909437 3.22627518 6.02709961 5.21899414 C6.86256317 6.03386795 6.86256317 6.03386795 7.71490479 6.86520386 C9.542967 8.65680418 11.34813461 10.46955948 13.15234375 12.28515625 C14.41956447 13.54325049 15.68752546 14.80059948 16.95619202 16.05723572 C19.60799981 18.69119672 22.24817517 21.33618553 24.88110352 23.98901367 C28.25267744 27.38358161 31.65493737 30.74537818 35.06705379 34.09912968 C37.69174515 36.68709192 40.29752687 39.29346405 42.89819527 41.90554619 C44.14515785 43.15281506 45.39832961 44.39390877 46.65778923 45.62855721 C48.41796239 47.35889428 50.15060699 49.11290779 51.87866211 50.87524414 C52.40065689 51.37790298 52.92265167 51.88056183 53.46046448 52.39845276 C56.21993799 55.27352832 57.31948536 57.35066792 57.38319397 61.25938416 C57 65 57 65 55.99023438 66.97460938 C52.83414006 68.60066386 49.62482931 68.42039823 46.15625 68.40625 C45.39074829 68.41708618 44.62524658 68.42792236 43.83654785 68.43908691 C40.56280649 68.48497035 37.28914212 68.49643343 34.01513672 68.51123047 C31.62438627 68.5269122 29.23430113 68.55991017 26.84375 68.59375 C26.10306274 68.59072876 25.36237549 68.58770752 24.59924316 68.58459473 C20.75388892 68.60236218 20.75388892 68.60236218 17.3037014 70.10260963 C15.34179766 72.95793928 15.62967654 75.30347245 15.63491821 78.74301147 C15.63179922 79.43216727 15.62868022 80.12132306 15.6254667 80.83136237 C15.61850936 83.14609407 15.63286877 85.46021026 15.64697266 87.77490234 C15.64614207 89.43223695 15.64392656 91.08957135 15.64042664 92.74690247 C15.63547167 96.31881908 15.63958547 99.89057169 15.65044022 103.46247482 C15.66677273 109.10978747 15.65834878 114.75689335 15.64559937 120.40420532 C15.61544866 135.44943476 15.61694559 150.49462746 15.63585222 165.53987181 C15.64817946 175.42166771 15.64634171 185.30323017 15.61746442 195.18499911 C15.60221157 200.79951461 15.60974068 206.41339755 15.63417459 212.02787375 C15.64423791 215.52119007 15.63356247 219.01421548 15.61705971 222.50749779 C15.61360483 224.12763784 15.61871898 225.74782221 15.63302803 227.36790276 C15.65135948 229.58036221 15.63898781 231.79062349 15.61904907 234.00302124 C15.62018015 235.24077993 15.62131123 236.47853863 15.62247658 237.75380516 C14.8237665 241.91905188 13.28950731 243.40519994 10 246 C6.74194336 246.63110352 6.74194336 246.63110352 3.08984375 246.62890625 C1.11081055 246.63180664 1.11081055 246.63180664 -0.90820312 246.63476562 C-1.93119507 246.61603394 -1.93119507 246.61603394 -2.97485352 246.59692383 C-5.06077551 246.56252844 -7.14247478 246.57629467 -9.22851562 246.59570312 C-19.29567209 246.5218609 -19.29567209 246.5218609 -22.16478729 244.39603424 C-24.63186871 241.17503892 -24.49698457 239.16610304 -24.49206543 235.13000488 C-24.49908391 234.09393121 -24.49908391 234.09393121 -24.50624418 233.03692675 C-24.51717598 230.72280577 -24.4996869 228.40977264 -24.48242188 226.09570312 C-24.4846077 224.43659646 -24.48860438 222.77749134 -24.49427795 221.11839294 C-24.50284569 217.54590021 -24.49905543 213.97370781 -24.4858551 210.40122986 C-24.46554033 204.7540806 -24.47548588 199.10723498 -24.4901123 193.46008301 C-24.51916182 180.45353579 -24.50840885 167.44707749 -24.49741364 154.44051361 C-24.48774521 142.52036149 -24.48642064 130.60036709 -24.51729441 118.68024206 C-24.53068896 113.06467547 -24.52467859 107.4495622 -24.50392914 101.83402252 C-24.49495853 98.34298519 -24.5024032 94.8521236 -24.51434135 91.36110115 C-24.5164764 89.74053927 -24.51172621 88.11995171 -24.4996357 86.49943352 C-24.48407276 84.28914569 -24.49296201 82.08025604 -24.50793457 79.86999512 C-24.50642647 78.63261345 -24.50491837 77.39523178 -24.50336456 76.1203537 C-25.09624791 72.39527569 -25.98403574 71.20579464 -29 69 C-31.69680128 68.6295273 -33.99693848 68.48838529 -36.6875 68.53125 C-37.42701904 68.52420044 -38.16653809 68.51715088 -38.9284668 68.5098877 C-41.28599787 68.48787213 -43.64239624 68.49085454 -46 68.5 C-49.10478043 68.51204386 -52.20786805 68.4983453 -55.3125 68.46875 C-56.02301514 68.48006958 -56.73353027 68.49138916 -57.46557617 68.50305176 C-60.72797918 68.469778 -62.75762506 68.15171703 -65.54296875 66.40820312 C-67 64 -67 64 -66.92320251 60.72518921 C-65.82848283 56.30791575 -63.86585888 54.04797711 -60.68579102 50.98876953 C-59.85646057 50.15571541 -59.85646057 50.15571541 -59.01037598 49.30583191 C-57.18889816 47.48343969 -55.34702776 45.68329001 -53.50390625 43.8828125 C-52.23093678 42.61850182 -50.95922021 41.35292853 -49.68870544 40.08615112 C-46.34736701 36.76201367 -42.98797011 33.45670862 -39.62487793 30.15460205 C-36.87700246 27.45039658 -34.14224778 24.73313374 -31.40808201 22.01507759 C-28.15261327 18.77918774 -24.89168706 15.54882784 -21.62890625 12.3203125 C-21.0045978 11.70242985 -20.38028934 11.0845472 -19.73706245 10.44794083 C-17.97547157 8.70727729 -16.21027375 6.97036963 -14.44360352 5.23486328 C-13.91937302 4.71646378 -13.39514252 4.19806427 -12.85502625 3.66395569 C-8.25285888 -0.8420782 -6.4319775 -1.5235827 0 0 Z " fill="#000000" transform="translate(455,86)"/>
<path d="M0 0 C0.74957489 0.61060823 0.74957489 0.61060823 1.51429272 1.23355198 C4.60496983 3.98692364 5.87937651 5.43541176 6.76863098 9.59764099 C6.80690458 10.94404901 6.81295303 12.29163516 6.79223633 13.63842773 C6.80435654 14.37908478 6.81647675 15.11974182 6.82896423 15.88284302 C6.8603232 18.31725982 6.84789061 20.74905993 6.83203125 23.18359375 C6.83861854 24.88461493 6.84683802 26.5856305 6.85661316 28.28663635 C6.86994943 31.84676716 6.86115399 35.40599608 6.8371582 38.96606445 C6.80858771 43.51741524 6.8386222 48.06617457 6.88579273 52.61729336 C6.91505476 56.12886798 6.91123368 59.63982838 6.89777184 63.15147591 C6.89562529 64.8287362 6.90406358 66.50604609 6.92350197 68.18319511 C7.06532971 82.91208721 7.06532971 82.91208721 2.65844727 87.43676758 C0.83473206 88.85017395 0.83473206 88.85017395 -1 90 C-1.57029434 90.39736862 -2.14058868 90.79473724 -2.72816467 91.20414734 C-9.23760797 95.50410073 -16.3931242 99.17011536 -24 101 C-24.72832031 101.18175781 -25.45664063 101.36351562 -26.20703125 101.55078125 C-43.71551748 104.36683148 -60.04541449 100.25392475 -74.57421875 90.22265625 C-85.87106586 80.89733569 -93.62548466 67.24262168 -95.8125 52.75 C-95.874375 51.5125 -95.93625 50.275 -96 49 C-96.05027344 48.27039063 -96.10054688 47.54078125 -96.15234375 46.7890625 C-96.78532716 31.14171257 -91.16404878 16.15197412 -80.75 4.5625 C-59.16517101 -18.2173625 -23.95595821 -19.77759341 0 0 Z " fill="#000000" transform="translate(208,212)"/>
<path d="M0 0 C3.89600167 2.05826503 6.73942221 4.1927111 9 8 C9.83064917 10.75092438 10.13310288 13.23980211 10.16113281 16.10668945 C10.17074036 16.90464432 10.1803479 17.70259918 10.19024658 18.5247345 C10.19449646 19.37895493 10.19874634 20.23317535 10.203125 21.11328125 C10.20882507 22.00105759 10.21452515 22.88883392 10.22039795 23.80351257 C10.229833 25.68043837 10.23637599 27.55738062 10.24023438 29.43432617 C10.24992977 32.29180113 10.28096295 35.1485534 10.3125 38.00585938 C10.31903172 39.83332908 10.32428153 41.66080391 10.328125 43.48828125 C10.3404718 44.33642899 10.3528186 45.18457672 10.36553955 46.0584259 C10.3454438 51.46495765 9.56959065 55.21396525 7 60 C2.67484134 64.00868363 -0.02247974 65.3048285 -5.97265625 65.21875 C-10.73165891 64.70525453 -13.96605237 61.46736872 -17 58 C-17.92338161 55.22985518 -18.14046101 53.50393479 -18.17700195 50.63964844 C-18.18983719 49.76153503 -18.20267242 48.88342163 -18.21589661 47.97869873 C-18.22328354 47.0318219 -18.23067047 46.08494507 -18.23828125 45.109375 C-18.246353 44.13139954 -18.25442474 43.15342407 -18.26274109 42.14581299 C-18.27657405 40.07460295 -18.28729973 38.0033702 -18.29516602 35.93212891 C-18.31235879 32.77592345 -18.35625006 29.62077104 -18.40039062 26.46484375 C-18.41051971 24.45052852 -18.41903514 22.4362044 -18.42578125 20.421875 C-18.44328934 19.48309509 -18.46079742 18.54431519 -18.47883606 17.5770874 C-18.45893232 11.51717041 -17.57194808 7.9447111 -14 3 C-9.59672466 -0.10230763 -5.25630342 -0.95473775 0 0 Z " fill="#000000" transform="translate(286,199)"/>
<path d="M0 0 C4.52883674 2.31730287 6.25541912 4.65903641 8.02734375 9.31640625 C8.45974239 12.72564046 8.47172266 16.10181312 8.4609375 19.53515625 C8.46617935 20.51125854 8.4714212 21.48736084 8.4768219 22.49304199 C8.48322661 24.55052746 8.48192526 26.60804962 8.47338867 28.66552734 C8.46487108 31.80632882 8.49367462 34.94531509 8.52539062 38.0859375 C8.52700267 40.08984321 8.52642504 42.09375212 8.5234375 44.09765625 C8.53467148 45.03218628 8.54590546 45.96671631 8.55747986 46.92956543 C8.48418792 53.81357834 7.0502133 57.06962044 2.33984375 62.12890625 C-1.30518474 64.00067764 -4.89604075 64.42984251 -8.97265625 64.31640625 C-13.70116981 62.71049598 -16.23826232 60.46863408 -18.97265625 56.31640625 C-19.83103741 53.57216037 -20.10576011 51.07650393 -20.13378906 48.2097168 C-20.14339661 47.41176193 -20.15300415 46.61380707 -20.16290283 45.79167175 C-20.16715271 44.93745132 -20.17140259 44.0832309 -20.17578125 43.203125 C-20.18148132 42.31534866 -20.1871814 41.42757233 -20.1930542 40.51289368 C-20.20248925 38.63596788 -20.20903224 36.75902563 -20.21289062 34.88208008 C-20.22258602 32.02460512 -20.2536192 29.16785285 -20.28515625 26.31054688 C-20.29168797 24.48307717 -20.29693778 22.65560234 -20.30078125 20.828125 C-20.31312805 19.97997726 -20.32547485 19.13182953 -20.3381958 18.25798035 C-20.31420819 11.80438743 -19.24408597 7.01372904 -14.97265625 1.94140625 C-10.73717062 -1.49992582 -5.05082704 -1.7502866 0 0 Z " fill="#000000" transform="translate(248.97265625,207.68359375)"/>
<path d="M0 0 C3.23254144 3.91823205 3.18208445 5.99557574 3.16015625 11.0390625 C3.15693359 12.34101563 3.15371094 13.64296875 3.15039062 14.984375 C3.14203466 16.36458399 3.13356971 17.74479232 3.125 19.125 C3.11998501 20.51301926 3.1154221 21.90104022 3.11132812 23.2890625 C3.09950976 26.69275132 3.08303434 30.09635439 3.0625 33.5 C2.47807129 33.35852539 1.89364258 33.21705078 1.29150391 33.07128906 C-3.03474412 32.06014298 -7.09588921 31.22301142 -11.5625 31.25 C-12.42101562 31.24484375 -13.27953125 31.2396875 -14.1640625 31.234375 C-17.57968665 31.5615052 -20.66788524 32.48278652 -23.9375 33.5 C-24.02469631 28.93762069 -24.07795922 24.37545614 -24.125 19.8125 C-24.15013672 18.51892578 -24.17527344 17.22535156 -24.20117188 15.89257812 C-24.21083984 14.64541016 -24.22050781 13.39824219 -24.23046875 12.11328125 C-24.2461792 10.96641846 -24.26188965 9.81955566 -24.27807617 8.63793945 C-23.76995995 3.95634966 -21.92733994 1.43774311 -18.5625 -1.75 C-12.22198959 -5.97700694 -5.64764863 -4.80650948 0 0 Z " fill="#000000" transform="translate(330.9375,192.5)"/>
<path d="M0 0 C3.90026415 1.34890559 6.4890402 3.16628578 8.6809082 6.74267578 C10.11169294 10.27581108 10.34715495 12.69915344 10.29296875 16.4921875 C10.28330078 17.69101563 10.27363281 18.88984375 10.26367188 20.125 C10.23853516 21.3625 10.21339844 22.6 10.1875 23.875 C10.16719727 25.76605469 10.16719727 25.76605469 10.14648438 27.6953125 C10.11123435 30.79731454 10.06195504 33.89843534 10 37 C3.35802461 35.7600009 -3.13018694 34.2337485 -9.625 32.375 C-10.43839844 32.14554688 -11.25179688 31.91609375 -12.08984375 31.6796875 C-14.06085213 31.12316749 -16.03057033 30.56208124 -18 30 C-18.0544207 27.31222198 -18.09387266 24.62556788 -18.125 21.9375 C-18.14175781 21.18533203 -18.15851563 20.43316406 -18.17578125 19.65820312 C-18.22262871 14.24732142 -18.16622159 8.62536638 -14.5625 4.2578125 C-9.53528434 0.61308115 -6.27473887 -0.80416328 0 0 Z " fill="#000000" transform="translate(363,199)"/>
</svg>
