<?xml version="1.0" encoding="UTF-8"?>
<svg version="1.1" xmlns="http://www.w3.org/2000/svg" width="512" height="512">
<path d="M0 0 C3.45105456 1.50491192 5.86724097 3.51583979 8.625 6.0625 C9.50414062 6.86816406 10.38328125 7.67382812 11.2890625 8.50390625 C12.18367187 9.32761719 13.07828125 10.15132812 14 11 C15.66461506 12.50227644 17.3312409 14.00232819 19 15.5 C59 51.5 59 51.5 61.5078125 53.7578125 C63.14739879 55.23292618 64.78799655 56.70691652 66.4296875 58.1796875 C71.0203061 62.30097768 75.58447107 66.44873788 80.125 70.625 C84.00016768 74.18849852 87.90365636 77.70865718 91.90625 81.12890625 C93.51457503 82.56619672 95.06739399 84.06578646 96.59375 85.58984375 C104.21805366 93.1292297 112.2236037 97.67009859 122 102 C120.08643351 107.48310398 117.27074451 110.36462774 112 113 C103.25559203 113.86874411 96.1004241 112.21718971 88 109 C87.78085937 109.88042969 87.56171875 110.76085937 87.3359375 111.66796875 C84.17628335 123.24052318 84.17628335 123.24052318 78 127 C72.70438175 129.64780913 65.30416385 128.31661418 59.8125 126.75 C55.30449085 125.24252174 51.18359832 123.24674724 47 121 C46.69707031 121.67546875 46.39414062 122.3509375 46.08203125 123.046875 C41.84565113 132.06710589 41.84565113 132.06710589 37 135 C27.0558697 138.3147101 16.7672414 135.27083334 7.65625 130.8671875 C7.1096875 130.58101562 6.563125 130.29484375 6 130 C5.938125 131.03125 5.87625 132.0625 5.8125 133.125 C4.8003753 137.95205627 3.44612929 139.55387071 0 143 C-12.28466123 147.09488708 -24.75996122 142.09994622 -35.77734375 136.7109375 C-49.52116877 129.75844316 -62.76895346 121.87072364 -76 114 C-77.07991211 113.3591748 -78.15982422 112.71834961 -79.27246094 112.05810547 C-99.79996223 99.8644188 -99.79996223 99.8644188 -108.9375 93.875 C-114.12302984 90.48814102 -119.39133632 87.61527576 -125 85 C-126.32 84.34 -127.64 83.68 -129 83 C-129 59.57 -129 36.14 -129 12 C-124.96938604 13.61224558 -122.7492399 14.78526702 -119.4375 17.3125 C-103.61642663 28.63010837 -83.84555623 30.79680133 -65.015625 27.78125 C-42.57959824 23.66615436 -18.08250033 13.96893377 0 0 Z " fill="#000000" transform="translate(252,222)"/>
<path d="M0 0 C24.15590092 10.64136604 51.30045037 15.3753708 76.66015625 21.171875 C76.66015625 60.111875 76.66015625 99.051875 76.66015625 139.171875 C73.03015625 140.161875 69.40015625 141.151875 65.66015625 142.171875 C61.58562065 145.65012581 61.58562065 145.65012581 60.66015625 149.171875 C57.17361149 147.6877377 55.01824553 145.70973448 52.41015625 142.984375 C49.02398333 139.52111847 45.56394087 136.26993366 41.890625 133.1171875 C39.10149843 130.68463928 36.38096406 128.18010649 33.66015625 125.671875 C30.38178015 122.65242474 27.09434116 119.64984884 23.72265625 116.734375 C19.53983614 113.11042856 15.49743818 109.33931754 11.43994141 105.57666016 C7.92802881 102.32571988 4.37014207 99.14203187 0.75 96.01171875 C-1.98354934 93.60517344 -4.66098381 91.13884304 -7.33984375 88.671875 C-10.64011251 85.63297323 -13.94933722 82.610314 -17.33984375 79.671875 C-20.73035155 76.7334349 -24.03953405 73.71073358 -27.33984375 70.671875 C-31.27045972 67.05302903 -35.21573275 63.46166944 -39.29296875 60.0078125 C-40.8859527 58.57899102 -42.4034515 57.06585345 -43.88671875 55.5234375 C-49.93873465 49.28908789 -49.93873465 49.28908789 -58.08984375 47.296875 C-62.91952026 47.80024973 -66.41189213 49.39414029 -70.33984375 52.171875 C-96.47289916 69.24701297 -125.66680234 80.58104734 -157.17578125 74.2109375 C-167.69998591 71.79483757 -177.96158355 65.87579907 -183.83984375 56.609375 C-185.42792406 52.9700243 -186.00362515 51.07159071 -185.33984375 47.171875 C-182.1513195 40.76780511 -177.0228322 38.16001936 -170.96484375 34.671875 C-168.87118808 33.43302842 -166.77876911 32.19208979 -164.6875 30.94921875 C-163.62547363 30.32128418 -162.56344727 29.69334961 -161.46923828 29.04638672 C-156.72034555 26.2017933 -152.05988096 23.22544225 -147.40234375 20.234375 C-136.65281046 13.35704285 -125.85570142 6.55903427 -115.01171875 -0.16845703 C-113.33001425 -1.21306843 -111.65006548 -2.26051695 -109.97265625 -3.31201172 C-77.08104945 -23.92121571 -33.96730697 -15.05313748 0 0 Z " fill="#000000" transform="translate(312.33984375,160.828125)"/>
<path d="M0 0 C1.21295998 -0.01511375 1.21295998 -0.01511375 2.45042419 -0.03053284 C5.12228241 -0.05901645 7.7935756 -0.06488984 10.46557617 -0.06811523 C12.32639294 -0.07775722 14.18720742 -0.08784977 16.04801941 -0.09837341 C19.94938425 -0.11633659 23.85054984 -0.12189437 27.75195312 -0.12011719 C32.74238242 -0.11981259 37.73152854 -0.16074159 42.72165394 -0.21243382 C46.56595177 -0.24585437 50.40994152 -0.251873 54.25436974 -0.25028801 C56.09353744 -0.25382034 57.93271378 -0.26704655 59.77173805 -0.29028511 C62.35003017 -0.31981114 64.92556608 -0.31101003 67.50390625 -0.29296875 C68.25791718 -0.30982727 69.0119281 -0.32668579 69.78878784 -0.34405518 C75.04916601 -0.25090727 77.75710647 1.31769567 81.61393261 4.85594273 C84.32766384 8.07435276 84.0774487 11.39775239 84.09321594 15.41279602 C84.10037125 16.66195801 84.10752655 17.91112 84.11489868 19.19813538 C84.1177389 20.58505224 84.12045063 21.97196938 84.12304688 23.35888672 C84.12931243 24.81755739 84.13595932 26.27622647 84.14295959 27.7348938 C84.16398954 32.52710867 84.17436023 37.31932383 84.18432617 42.11157227 C84.18837397 43.76168522 84.1924909 45.41179801 84.19667625 47.06191063 C84.21572472 54.8135921 84.22995709 62.56526407 84.23828822 70.31696445 C84.24806307 79.26409611 84.27439037 88.21098055 84.31478912 97.15802509 C84.34494724 104.07447244 84.35975676 110.9908489 84.36306924 117.90736073 C84.36541988 122.03799007 84.37438203 126.16835517 84.39953041 130.29891396 C84.42281135 134.18547482 84.42704452 138.07159747 84.41676903 141.95820999 C84.41627357 143.38282033 84.422597 144.80745225 84.43632507 146.23199654 C84.54631796 158.32458329 84.54631796 158.32458329 82.22917175 162.14274597 C78.08689473 166.3030176 75.21828527 167.76810426 69.25022888 167.84237671 C68.15521812 167.83326767 68.15521812 167.83326767 67.03808594 167.82397461 C65.86638855 167.83186005 65.86638855 167.83186005 64.67102051 167.83990479 C62.09712537 167.85307372 59.52385226 167.84437706 56.94995117 167.83422852 C55.15542991 167.83625035 53.36090945 167.83916271 51.56639099 167.84292603 C47.80801561 167.84734534 44.04985436 167.84093175 40.29150391 167.8269043 C35.48184156 167.80982496 30.67268192 167.81964809 25.86303806 167.83762169 C22.15777321 167.84848068 18.45262681 167.84500327 14.74735832 167.83723831 C12.97439451 167.83524151 11.20141983 167.83767726 9.4284687 167.84467697 C6.94649041 167.85232498 4.46531704 167.84064035 1.98339844 167.82397461 C1.2554155 167.8300473 0.52743256 167.83612 -0.22261047 167.84237671 C-4.89433332 167.78447732 -8.07516149 166.87513927 -12.05395508 164.43579102 C-15.73198419 160.37727614 -16.17998266 156.84432754 -16.2011261 151.49674988 C-16.2082814 150.25600204 -16.21543671 149.01525421 -16.22280884 147.73690796 C-16.22564905 146.35943629 -16.22836079 144.98196434 -16.23095703 143.60449219 C-16.23722263 142.1556736 -16.24386952 140.70685661 -16.25086975 139.25804138 C-16.27189925 134.4982922 -16.28227035 129.73854274 -16.29223633 124.97875977 C-16.29628415 123.33979081 -16.30040108 121.70082202 -16.30458641 120.06185341 C-16.32363479 112.36249768 -16.33786717 104.66315153 -16.34619838 96.96377677 C-16.35597315 88.07720488 -16.38230028 79.19088192 -16.42269927 70.30439776 C-16.45285799 63.43465914 -16.46766697 56.56499189 -16.47097939 49.69518834 C-16.47332997 45.59250392 -16.48229126 41.49008554 -16.50744057 37.38747215 C-16.53072255 33.52717524 -16.53495426 29.66731952 -16.52467918 25.8069706 C-16.52418375 24.3920355 -16.53050645 22.97707867 -16.54423523 21.56221008 C-16.66651536 8.21069151 -16.66651536 8.21069151 -12.05395508 3.43579102 C-11.4775679 2.82602921 -10.90118073 2.2162674 -10.30732727 1.58802795 C-6.95846929 -0.12437352 -3.67728829 -0.00657755 0 0 Z " fill="#000000" transform="translate(419.053955078125,167.564208984375)"/>
<path d="M0 0 C0.8103923 -0.00861557 1.62078461 -0.01723114 2.45573425 -0.02610779 C5.12714839 -0.04875867 7.79751268 -0.04203051 10.46899414 -0.03295898 C12.33077811 -0.0381952 14.19255941 -0.04447168 16.05433655 -0.05174255 C19.95399468 -0.0621453 23.8532879 -0.05758747 27.75292969 -0.04296875 C32.74444752 -0.02578642 37.73481365 -0.0492698 42.72620296 -0.08445835 C46.57047621 -0.10644524 50.41447447 -0.10498767 54.25879097 -0.09669304 C56.0987531 -0.09587412 57.93873555 -0.10272614 59.77863884 -0.11746407 C62.35444258 -0.1349331 64.92818452 -0.12034934 67.50390625 -0.09765625 C68.25994141 -0.10934845 69.01597656 -0.12104065 69.79492188 -0.13308716 C73.64070187 -0.06433386 76.22182511 0.46720217 79.2111969 2.82289124 C83.28338247 7.0593465 84.06621617 9.73741752 84.0773468 15.59274292 C84.08443161 16.83486542 84.09151642 18.07698792 84.09881592 19.35675049 C84.09652215 20.73059118 84.09401246 22.10443153 84.09130859 23.47827148 C84.09565652 24.92723859 84.10083994 26.3762034 84.10679626 27.82516479 C84.12018993 31.75911553 84.12076446 35.69297021 84.11823297 39.6269393 C84.11716334 42.91218627 84.12204648 46.19741379 84.12683839 49.4826566 C84.13793518 57.23446489 84.13837024 64.98622472 84.13232422 72.73803711 C84.1262855 80.73148982 84.13859239 88.72476645 84.15989429 96.71818912 C84.17751679 103.58371091 84.18351056 110.4491767 84.18025655 117.31472027 C84.17844432 121.41397266 84.18107357 125.5130995 84.19497108 129.61233139 C84.20755515 133.46850071 84.2056 137.32439591 84.1925602 141.18056107 C84.19019598 142.59387047 84.19292359 144.0071992 84.20118332 145.42048645 C84.2116647 147.35369372 84.20173973 149.28697919 84.19087219 151.22018433 C84.19103993 152.30086119 84.19120768 153.38153805 84.1913805 154.49496269 C83.64454706 158.92894047 82.14184247 162.33249194 78.81665039 165.34594727 C74.68364528 167.79991905 70.78865285 167.69347788 66.13574219 167.71044922 C64.96448288 167.72030602 64.96448288 167.72030602 63.76956177 167.73036194 C61.18499657 167.7500756 58.60048941 167.7617529 56.01586914 167.77172852 C54.690773 167.77784181 54.690773 167.77784181 53.33890724 167.7840786 C48.6636033 167.80493059 43.98832865 167.81923636 39.31298828 167.82861328 C34.48754017 167.83967896 29.66255302 167.87408305 24.83726788 167.91378498 C21.12345021 167.93994528 17.40974253 167.94830456 13.69584084 167.95189476 C11.91726377 167.95676184 10.13869165 167.96837935 8.3602047 167.98693275 C5.86834663 168.01131337 3.37768332 168.01036158 0.88574219 168.00341797 C-0.21094536 168.02263306 -0.21094536 168.02263306 -1.32978821 168.04223633 C-6.42174277 167.99065395 -9.31909351 166.82155353 -13.18334961 163.53344727 C-15.97958542 159.69996475 -16.55940182 157.01994269 -16.56430054 152.3092041 C-16.57276001 151.05584763 -16.58121948 149.80249115 -16.5899353 148.51115417 C-16.58410292 147.12991202 -16.57795845 145.74867116 -16.5715332 144.36743164 C-16.57560012 142.9068411 -16.58094268 141.44625364 -16.58746338 139.985672 C-16.60112856 136.024938 -16.5958417 132.06443869 -16.58632612 128.10370064 C-16.57872537 123.95670062 -16.58577629 119.80972055 -16.59048462 115.66271973 C-16.59594096 108.69885657 -16.58875376 101.73508889 -16.57446289 94.77124023 C-16.55813658 86.72263802 -16.56342517 78.67426379 -16.57994211 70.6256671 C-16.59356045 63.71257435 -16.59547494 56.79955021 -16.5876261 49.88644838 C-16.58295149 45.75874883 -16.58231888 41.6311564 -16.59223557 37.50346375 C-16.60090804 33.62264533 -16.59487838 29.74212057 -16.5775528 25.86133385 C-16.57358943 24.43793411 -16.57471947 23.01450962 -16.58134079 21.59111977 C-16.58955142 19.64665236 -16.57742445 17.70213088 -16.56430054 15.75769043 C-16.56316946 14.67001625 -16.56203838 13.58234207 -16.56087303 12.46170807 C-15.98899963 8.02597146 -14.04491623 5.43584207 -11.00730896 2.25428772 C-7.33248084 0.01495205 -4.17779333 -0.03596522 0 0 Z " fill="#000000" transform="translate(25.183349609375,167.466552734375)"/>
</svg>
